GIL06_fast3_ik
nRows=3
nColumns=375

# SIMM Motion File Header:
name GIL06_fast3_ik
datacolumns 375
datarows 3
otherdata 1
range 0.59167000 0.60833000
endheader
time	pelvis_tx	pelvis_ty	pelvis_tz	pelvis_tilt	pelvis_list	pelvis_rotation	hip_flexion_r	hip_adduction_r	hip_rotation_r	knee_angle_r	ankle_angle_r	hip_flexion_l	hip_adduction_l	hip_rotation_l	knee_angle_l	ankle_angle_l	lumbar_extension	lumbar_bending	lumbar_rotation	subtalar_angle_r	mtp_angle_r	subtalar_angle_l	mtp_angle_l	asis_r_px	asis_r_py	asis_r_pz	asis_l_px	asis_l_py	asis_l_pz	midasis_px	midasis_py	midasis_pz	psis_r_px	psis_r_py	psis_r_pz	psis_l_px	psis_l_py	psis_l_pz	hip_r_px	hip_r_py	hip_r_pz	hip_l_px	hip_l_py	hip_l_pz	midhip_px	midhip_py	midhip_pz	epicondLat_r_px	epicondLat_r_py	epicondLat_r_pz	epicondMed_r_px	epicondMed_r_py	epicondMed_r_pz	thighwand_r_px	thighwand_r_py	thighwand_r_pz	upperleg1_r_px	upperleg1_r_py	upperleg1_r_pz	upperleg2_r_px	upperleg2_r_py	upperleg2_r_pz	malleolusLat_r_px	malleolusLat_r_py	malleolusLat_r_pz	malleolusMedv_r_px	malleolusMedv_r_py	malleolusMedv_r_pz	shankwand_r_px	shankwand_r_py	shankwand_r_pz	lowerleg1_r_px	lowerleg1_r_py	lowerleg1_r_pz	knee_r_px	knee_r_py	knee_r_pz	ankle_r_px	ankle_r_py	ankle_r_pz	toe_r_px	toe_r_py	toe_r_pz	epicondLat_l_px	epicondLat_l_py	epicondLat_l_pz	epicondMed_l_px	epicondMed_l_py	epicondMed_l_pz	thighwand_l_px	thighwand_l_py	thighwand_l_pz	upperleg1_l_px	upperleg1_l_py	upperleg1_l_pz	upperleg2_l_px	upperleg2_l_py	upperleg2_l_pz	malleolusLat_l_px	malleolusLat_l_py	malleolusLat_l_pz	malleolusMedv_l_px	malleolusMedv_l_py	malleolusMedv_l_pz	shankwand_l_px	shankwand_l_py	shankwand_l_pz	lowerleg1_l_px	lowerleg1_l_py	lowerleg1_l_pz	knee_l_px	knee_l_py	knee_l_pz	ankle_l_px	ankle_l_py	ankle_l_pz	toe_l_px	toe_l_py	toe_l_pz	subclavicle_r_px	subclavicle_r_py	subclavicle_r_pz	subclavicle_l_px	subclavicle_l_py	subclavicle_l_pz	neck_px	neck_py	neck_pz	sternalnotch_px	sternalnotch_py	sternalnotch_pz	xyphoidprocess_px	xyphoidprocess_py	xyphoidprocess_pz	midhip_tx	midhip_ty	midhip_tz	hip_r_tx	hip_r_ty	hip_r_tz	hip_l_tx	hip_l_ty	hip_l_tz	knee_r_tx	knee_r_ty	knee_r_tz	knee_l_tx	knee_l_ty	knee_l_tz	ankle_r_tx	ankle_r_ty	ankle_r_tz	ankle_l_tx	ankle_l_ty	ankle_l_tz	midasis_tx	midasis_ty	midasis_tz	asis_r_tx	asis_r_ty	asis_r_tz	asis_l_tx	asis_l_ty	asis_l_tz	psis_r_tx	psis_r_ty	psis_r_tz	psis_l_tx	psis_l_ty	psis_l_tz	epicondLat_r_tx	epicondLat_r_ty	epicondLat_r_tz	epicondLat_l_tx	epicondLat_l_ty	epicondLat_l_tz	epicondMed_r_tx	epicondMed_r_ty	epicondMed_r_tz	epicondMed_l_tx	epicondMed_l_ty	epicondMed_l_tz	malleolusLat_r_tx	malleolusLat_r_ty	malleolusLat_r_tz	malleolusLat_l_tx	malleolusLat_l_ty	malleolusLat_l_tz	malleolusMedv_r_tx	malleolusMedv_r_ty	malleolusMedv_r_tz	malleolusMedv_l_tx	malleolusMedv_l_ty	malleolusMedv_l_tz	neck_tx	neck_ty	neck_tz	subclavicle_r_tx	subclavicle_r_ty	subclavicle_r_tz	subclavicle_l_tx	subclavicle_l_ty	subclavicle_l_tz	sternalnotch_tx	sternalnotch_ty	sternalnotch_tz	xyphoidprocess_tx	xyphoidprocess_ty	xyphoidprocess_tz	thighwand_r_tx	thighwand_r_ty	thighwand_r_tz	thighwand_l_tx	thighwand_l_ty	thighwand_l_tz	upperleg1_r_tx	upperleg1_r_ty	upperleg1_r_tz	upperleg1_l_tx	upperleg1_l_ty	upperleg1_l_tz	upperleg2_r_tx	upperleg2_r_ty	upperleg2_r_tz	upperleg2_l_tx	upperleg2_l_ty	upperleg2_l_tz	shankwand_r_tx	shankwand_r_ty	shankwand_r_tz	shankwand_l_tx	shankwand_l_ty	shankwand_l_tz	lowerleg1_r_tx	lowerleg1_r_ty	lowerleg1_r_tz	lowerleg1_l_tx	lowerleg1_l_ty	lowerleg1_l_tz	toe_r_tx	toe_r_ty	toe_r_tz	toe_l_tx	toe_l_ty	toe_l_tz	ground_force_vx	ground_force_vy	ground_force_vz	ground_force_px	ground_force_py	ground_force_pz	ground_force_vx	ground_force_vy	ground_force_vz	ground_force_px	ground_force_py	ground_force_pz	ground_torque_x	ground_torque_y	ground_torque_z	ground_torque_x	ground_torque_y	ground_torque_z	ground_marker_px	ground_marker_py	ground_marker_pz	ground_marker_px	ground_marker_py	ground_marker_pz	ground_marker_px	ground_marker_py	ground_marker_pz	ground_marker_px	ground_marker_py	ground_marker_pz	ground_marker_px	ground_marker_py	ground_marker_pz	ground_marker_px	ground_marker_py	ground_marker_pz	ground_marker_px	ground_marker_py	ground_marker_pz	ground_marker_px	ground_marker_py	ground_marker_pz	ground_marker_px	ground_marker_py	ground_marker_pz	ground_marker_px	ground_marker_py	ground_marker_pz	ground_marker_px	ground_marker_py	ground_marker_pz	ground_marker_px	ground_marker_py	ground_marker_pz	ground_marker_px	ground_marker_py	ground_marker_pz	ground_marker_px	ground_marker_py	ground_marker_pz	ground_marker_px	ground_marker_py	ground_marker_pz	ground_marker_px	ground_marker_py	ground_marker_pz	ground_marker_px	ground_marker_py	ground_marker_pz	ground_marker_px	ground_marker_py	ground_marker_pz	ground_marker_px	ground_marker_py	ground_marker_pz	ground_marker_px	ground_marker_py	ground_marker_pz	ground_marker_px	ground_marker_py	ground_marker_pz	ground_marker_px	ground_marker_py	ground_marker_pz	ground_marker_px	ground_marker_py	ground_marker_pz	ground_marker_px	ground_marker_py	ground_marker_pz	ground_marker_px	ground_marker_py	ground_marker_pz	ground_marker_px	ground_marker_py	ground_marker_pz	ground_marker_px	ground_marker_py	ground_marker_pz	ground_marker_px	ground_marker_py	ground_marker_pz	ground_marker_px	ground_marker_py	ground_marker_pz	ground_marker_px	ground_marker_py	ground_marker_pz	ground_marker_px	ground_marker_py	ground_marker_pz	ground_marker_px	ground_marker_py	ground_marker_pz	ground_marker_px	ground_marker_py	ground_marker_pz	ground_marker_px	ground_marker_py	ground_marker_pz	ground_marker_px	ground_marker_py	ground_marker_pz	ground_marker_px	ground_marker_py	ground_marker_pz	ground_marker_px	ground_marker_py	ground_marker_pz
      0.59167000	      0.69932574	      0.81365722	     -0.25012760	     -3.97235856	     -2.60669110	      1.40878028	     31.46014532	      4.76010122	      3.71370193	    -19.28119880	     -9.13798201	    -10.67193412	     -5.86003079	     -6.23969142	    -33.60687817	    -20.17373417	      8.52056790	     -0.46205665	      5.19599410	      0.00000000	      0.00000000	      0.00000000	      0.00000000	      0.75883265	      0.80335384	     -0.13414619	      0.75062195	      0.79185677	     -0.37966068	      0.71273739	      0.81271081	     -0.25045790	      0.52279388	      0.90270654	     -0.22021990	      0.51662379	      0.89876300	     -0.27497640	      0.62942263	      0.75865757	     -0.16546490	      0.62498263	      0.75165432	     -0.32567838	      0.62720263	      0.75515594	     -0.24557164	      0.81314921	      0.41826346	     -0.12843460	      0.77406348	      0.41756916	     -0.26818874	      0.88118675	      0.62837514	     -0.13873954	      0.83438076	      0.63041992	     -0.15249236	      0.84281750	      0.55350204	     -0.16099393	      0.84551254	      0.05771974	     -0.14506009	      0.85150046	      0.06722434	     -0.22097376	      0.91208797	      0.21751370	     -0.17235751	      0.86494119	      0.21657481	     -0.17981566	      0.79686165	      0.43161176	     -0.18632006	      0.84883135	      0.06700126	     -0.19285239	      0.95895946	      0.04150847	     -0.18976192	      0.51674849	      0.39495860	     -0.41149487	      0.53181573	      0.36862219	     -0.26601055	      0.74179531	      0.51791690	     -0.37609577	      0.69969203	      0.54518507	     -0.37415909	      0.66492648	      0.48001488	     -0.37252847	      0.22962011	      0.16012902	     -0.37426824	      0.26331044	      0.15023577	     -0.30243425	      0.29456228	      0.25241374	     -0.43866787	      0.31225485	      0.25187335	     -0.39309343	      0.53208811	      0.39410401	     -0.34542462	      0.25813135	      0.14803492	     -0.33636746	      0.27148437	      0.05021669	     -0.36080515	      0.64050921	      1.25855449	     -0.22374303	      0.63911959	      1.25855762	     -0.30566175	      0.49741126	      1.29170102	     -0.26010948	      0.62466045	      1.24912880	     -0.27662154	      0.69318555	      1.19064978	     -0.27658873	      0.62333500	      0.74841000	     -0.24858700	      0.60641300	      0.75443600	     -0.16882400	      0.60197100	      0.74895700	     -0.32429300	      0.78815400	      0.41499500	     -0.19290700	      0.51516600	      0.39669100	     -0.34924700	      0.84532300	      0.06085200	     -0.19642800	      0.24893800	      0.14489100	     -0.32494800	      0.73088900	      0.82546900	     -0.25277900	      0.73440600	      0.82980700	     -0.12970900	      0.72737200	      0.82113200	     -0.37584900	      0.48751800	      0.89383200	     -0.21393200	      0.48372800	      0.89298900	     -0.26844200	      0.79699600	      0.41469500	     -0.12195600	      0.50759500	      0.40357000	     -0.42001100	      0.78066600	      0.40302100	     -0.26918800	      0.52358600	      0.38362500	     -0.25597600	      0.83664800	      0.05907900	     -0.15896000	      0.23431500	      0.15701000	     -0.35958300	      0.85708100	      0.06936300	     -0.23157100	      0.25911300	      0.16003000	     -0.28423600	      0.50421200	      1.31667800	     -0.26220400	      0.63535300	      1.25772200	     -0.22100000	      0.63776400	      1.25843300	     -0.30644000	      0.62075300	      1.25174700	     -0.27642400	      0.67675100	      1.18141700	     -0.27419600	      0.86464000	      0.60882700	     -0.12224800	      0.73450000	      0.53539800	     -0.36338200	      0.82093600	      0.61128600	     -0.13754300	      0.69095000	      0.55957600	     -0.36481200	      0.83446400	      0.53569400	     -0.14996200	      0.65858100	      0.49437800	     -0.36157900	      0.90648100	      0.21994000	     -0.16754600	      0.30205500	      0.23429500	     -0.43367500	      0.86384000	      0.21470800	     -0.18194400	      0.31212100	      0.24102200	     -0.38871700	      0.95092600	      0.05040700	     -0.19409000	      0.28330500	      0.05304400	     -0.32701300	   -199.10756786	    729.18164751	    -36.20408510	      0.84762244	      0.00000000	     -0.19266020	     37.39514963	     80.33415272	     -8.98539999	      0.29389227	      0.00000000	     -0.30932333	      0.00000000	     -0.44872705	      0.00000000	      0.00000000	     -0.53498810	      0.00000000	      0.62333488	      0.74840963	     -0.24858747	      0.60641325	      0.75443625	     -0.16882429	      0.60197091	      0.74895680	     -0.32429343	      0.78815413	      0.41499454	     -0.19290651	      0.51516610	      0.39669135	     -0.34924674	      0.84532338	      0.06085185	     -0.19642769	      0.24893793	      0.14489140	     -0.32494849	      0.73088890	      0.82546914	     -0.25277922	      0.73440552	      0.82980675	     -0.12970938	      0.72737229	      0.82113159	     -0.37584904	      0.48751771	      0.89383179	     -0.21393195	      0.48372781	      0.89298916	     -0.26844171	      0.79699636	      0.41469505	     -0.12195599	      0.50759482	      0.40356976	     -0.42001122	      0.78066629	      0.40302065	     -0.26918802	      0.52358592	      0.38362539	     -0.25597584	      0.83664757	      0.05907879	     -0.15895988	      0.23431501	      0.15701003	     -0.35958317	      0.85708100	      0.06936263	     -0.23157144	      0.25911343	      0.16003011	     -0.28423589	      0.50421214	      1.31667805	     -0.26220357	      0.63535345	      1.25772166	     -0.22099978	      0.63776350	      1.25843251	     -0.30644009	      0.62075305	      1.25174654	     -0.27642429	      0.67675072	      1.18141735	     -0.27419573	      0.86464018	      0.60882711	     -0.12224798	      0.73449975	      0.53539771	     -0.36338240	      0.82093644	      0.61128569	     -0.13754277	      0.69095004	      0.55957609	     -0.36481172	      0.83446360	      0.53569418	     -0.14996171	      0.65858096	      0.49437803	     -0.36157888	      0.90648109	      0.21993995	     -0.16754556	      0.30205497	      0.23429455	     -0.43367550	      0.86383951	      0.21470825	     -0.18194394	      0.31212097	      0.24102204	     -0.38871673	      0.95092559	      0.05040715	     -0.19408964	      0.28330538	      0.05304411	     -0.32701346
      0.60000000	      0.71232275	      0.81500524	     -0.24748682	     -3.64080851	     -2.98397429	      1.23966851	     30.87681326	      5.39246516	      3.17915122	    -20.61724280	     -8.35158643	     -9.76581179	     -6.86493966	     -6.30565789	    -36.57984952	    -23.17893294	      8.18900105	     -0.06767326	      5.74976402	      0.00000000	      0.00000000	      0.00000000	      0.00000000	      0.77159665	      0.80583954	     -0.13129081	      0.76407398	      0.79263487	     -0.37674144	      0.72574055	      0.81413629	     -0.24777739	      0.53519170	      0.90320468	     -0.21862162	      0.52918331	      0.89885458	     -0.27336532	      0.64253306	      0.76016486	     -0.16262746	      0.63853907	      0.75205272	     -0.32280036	      0.64053607	      0.75610879	     -0.24271391	      0.82423297	      0.41855079	     -0.12685281	      0.78601628	      0.41904154	     -0.26684795	      0.89343719	      0.62836579	     -0.13525862	      0.84672926	      0.63075485	     -0.14928658	      0.85481433	      0.55385469	     -0.15827617	      0.84641938	      0.05708516	     -0.14483083	      0.85314408	      0.06672871	     -0.22066524	      0.91767548	      0.21503248	     -0.17103694	      0.87056806	      0.21546549	     -0.17878471	      0.80866716	      0.43237652	     -0.18477713	      0.85029592	      0.06646563	     -0.19256179	      0.95999952	      0.03931158	     -0.18863566	      0.53843567	      0.39407597	     -0.41303832	      0.55337004	      0.36647208	     -0.26777544	      0.76060601	      0.52145086	     -0.37517155	      0.71791562	      0.54778398	     -0.37314983	      0.68455630	      0.48186694	     -0.37240365	      0.24441082	      0.16757414	     -0.37720716	      0.27775556	      0.15628678	     -0.30541746	      0.31211069	      0.25822952	     -0.44107887	      0.32975690	      0.25691195	     -0.39550229	      0.55371497	      0.39225299	     -0.34698294	      0.27252971	      0.15442713	     -0.33936391	      0.27798192	      0.05560937	     -0.36279970	      0.65340197	      1.25935564	     -0.22244016	      0.65140759	      1.25929194	     -0.30434637	      0.51005699	      1.29254877	     -0.25777666	      0.63715826	      1.24989482	     -0.27519240	      0.70565077	      1.19137917	     -0.27561700	      0.63698000	      0.74932100	     -0.24622500	      0.61973100	      0.75582800	     -0.16662900	      0.61566700	      0.74932700	     -0.32206900	      0.79932800	      0.41648700	     -0.19204800	      0.53601100	      0.39394200	     -0.35197300	      0.84650600	      0.06059400	     -0.19642300	      0.26336100	      0.15057600	     -0.32600000	      0.74398100	      0.82704200	     -0.25076400	      0.74718400	      0.83216600	     -0.12825100	      0.74077800	      0.82191900	     -0.37327800	      0.49974000	      0.89447200	     -0.21387700	      0.49625000	      0.89285700	     -0.26850100	      0.80776300	      0.41563300	     -0.12105200	      0.52866700	      0.40153800	     -0.42268800	      0.79206300	      0.40628000	     -0.26807100	      0.54684200	      0.37677300	     -0.25975200	      0.83803700	      0.05901000	     -0.15890000	      0.24892000	      0.16306500	     -0.36057900	      0.85855900	      0.06844500	     -0.23153900	      0.27474700	      0.16378500	     -0.28557100	      0.51647900	      1.31771000	     -0.25992900	      0.64863300	      1.25916800	     -0.21968900	      0.65024900	      1.26014500	     -0.30469800	      0.63328100	      1.25304500	     -0.27499100	      0.68993800	      1.18324200	     -0.27327200	      0.87657200	      0.60952500	     -0.11949300	      0.75305700	      0.53757400	     -0.36325000	      0.83342500	      0.61317600	     -0.13484700	      0.70876000	      0.56018800	     -0.36439800	      0.84612900	      0.53777000	     -0.14749900	      0.67856700	      0.49392600	     -0.36255900	      0.91190000	      0.21777900	     -0.16788200	      0.31803500	      0.23778500	     -0.43495000	      0.86907300	      0.21350300	     -0.18231800	      0.32941400	      0.24374600	     -0.38963700	      0.95224300	      0.04853900	     -0.19440800	      0.29094900	      0.05539500	     -0.32715700	   -207.16222706	    761.44788813	    -39.92537064	      0.85228369	      0.00000000	     -0.19212776	     15.58919472	     39.48195931	     -5.56681116	      0.30364053	      0.00000000	     -0.30691086	      0.00000000	     -1.08261328	      0.00000000	      0.00000000	     -0.31174402	      0.00000000	      0.63698000	      0.74932081	     -0.24622542	      0.61973089	      0.75582808	     -0.16662873	      0.61566728	      0.74932730	     -0.32206890	      0.79932821	      0.41648725	     -0.19204777	      0.53601080	      0.39394182	     -0.35197264	      0.84650642	      0.06059361	     -0.19642329	      0.26336110	      0.15057608	     -0.32599977	      0.74398077	      0.82704222	     -0.25076437	      0.74718362	      0.83216590	     -0.12825070	      0.74077791	      0.82191861	     -0.37327802	      0.49974024	      0.89447242	     -0.21387692	      0.49625012	      0.89285684	     -0.26850113	      0.80776346	      0.41563350	     -0.12105221	      0.52866697	      0.40153816	     -0.42268765	      0.79206258	      0.40627971	     -0.26807082	      0.54684156	      0.37677291	     -0.25975245	      0.83803737	      0.05900960	     -0.15889977	      0.24891973	      0.16306472	     -0.36057910	      0.85855943	      0.06844535	     -0.23153873	      0.27474651	      0.16378506	     -0.28557122	      0.51647884	      1.31771004	     -0.25992864	      0.64863312	      1.25916755	     -0.21968856	      0.65024936	      1.26014531	     -0.30469811	      0.63328135	      1.25304532	     -0.27499098	      0.68993795	      1.18324208	     -0.27327192	      0.87657166	      0.60952508	     -0.11949334	      0.75305682	      0.53757411	     -0.36325026	      0.83342493	      0.61317563	     -0.13484670	      0.70875978	      0.56018758	     -0.36439788	      0.84612876	      0.53777009	     -0.14749889	      0.67856741	      0.49392572	     -0.36255884	      0.91189986	      0.21777925	     -0.16788223	      0.31803480	      0.23778524	     -0.43494964	      0.86907339	      0.21350254	     -0.18231788	      0.32941443	      0.24374641	     -0.38963673	      0.95224321	      0.04853878	     -0.19440827	      0.29094881	      0.05539538	     -0.32715705
      0.60833000	      0.72504262	      0.81645278	     -0.24482038	     -3.28139000	     -3.38982953	      1.05479082	     30.16192558	      6.07881999	      2.72860077	    -21.75343422	     -7.41580919	     -8.78577636	     -7.90091339	     -6.38104819	    -39.62233911	    -25.56205441	      7.75209522	      0.33776241	      6.25062121	      0.00000000	      0.00000000	      0.00000000	      0.00000000	      0.78404740	      0.80851369	     -0.12839734	      0.77730010	      0.79348004	     -0.37376528	      0.73846651	      0.81566848	     -0.24506752	      0.54726659	      0.90371281	     -0.21708733	      0.54144030	      0.89892687	     -0.27181434	      0.65536935	      0.76177972	     -0.15975763	      0.65187807	      0.75247995	     -0.31987772	      0.65362371	      0.75712983	     -0.23981767	      0.83448331	      0.41866290	     -0.12534989	      0.79698050	      0.42035148	     -0.26552865	      0.90520031	      0.62803571	     -0.13200943	      0.85858195	      0.63084711	     -0.14625533	      0.86617244	      0.55395314	     -0.15571670	      0.84706585	      0.05662435	     -0.14482825	      0.85441510	      0.06641171	     -0.22058625	      0.92264384	      0.21272122	     -0.16999334	      0.87560310	      0.21444727	     -0.17796293	      0.81955034	      0.43295992	     -0.18328570	      0.85142409	      0.06610364	     -0.19249809	      0.96079575	      0.03775449	     -0.18782895	      0.56059858	      0.39328374	     -0.41451956	      0.57552930	      0.36442463	     -0.26950045	      0.77955043	      0.52539329	     -0.37420745	      0.73624575	      0.55069630	     -0.37209723	      0.70443821	      0.48401257	     -0.37223352	      0.26012509	      0.17508272	     -0.37980983	      0.29315524	      0.16242565	     -0.30810317	      0.33041333	      0.26408327	     -0.44321120	      0.34803179	      0.26199623	     -0.39765263	      0.57585917	      0.39047766	     -0.34850240	      0.28786387	      0.16090960	     -0.34205655	      0.28643919	      0.06179370	     -0.36481444	      0.66639325	      1.26016285	     -0.22122775	      0.66390329	      1.26001489	     -0.30312028	      0.52289668	      1.29357517	     -0.25573263	      0.64981382	      1.25067462	     -0.27387050	      0.71819781	      1.19203576	     -0.27464592	      0.65037400	      0.75037800	     -0.24377200	      0.63279800	      0.75737700	     -0.16438100	      0.62913000	      0.74977100	     -0.31978100	      0.80962600	      0.41779500	     -0.19130800	      0.55734700	      0.39119100	     -0.35458000	      0.84737900	      0.06044200	     -0.19645300	      0.27877200	      0.15633700	     -0.32697300	      0.75679100	      0.82878300	     -0.24873200	      0.75966900	      0.83475200	     -0.12678200	      0.75391300	      0.82281400	     -0.37068100	      0.51174800	      0.89512600	     -0.21389400	      0.50856500	      0.89271800	     -0.26863700	      0.81775500	      0.41639600	     -0.12028600	      0.55015900	      0.39948700	     -0.42523300	      0.80249800	      0.40878700	     -0.26660200	      0.57042500	      0.37094600	     -0.26194100	      0.83910800	      0.05902700	     -0.15887900	      0.26460600	      0.16907400	     -0.36157500	      0.85979500	      0.06759700	     -0.23154000	      0.29103300	      0.16797700	     -0.28685400	      0.52929500	      1.31888900	     -0.25797600	      0.66203900	      1.26051100	     -0.21863600	      0.66278600	      1.26135200	     -0.30326000	      0.64579000	      1.25433300	     -0.27360900	      0.70288600	      1.18454800	     -0.27231800	      0.88792500	      0.61012900	     -0.11702600	      0.77182400	      0.54002400	     -0.36311300	      0.84439900	      0.61476900	     -0.13234400	      0.72638200	      0.56090300	     -0.36414300	      0.85681000	      0.53963000	     -0.14529000	      0.69838400	      0.49347400	     -0.36308300	      0.91667000	      0.21573000	     -0.16825100	      0.33511000	      0.24099500	     -0.43619800	      0.87350300	      0.21246500	     -0.18296900	      0.34759800	      0.24638300	     -0.39073600	      0.95321500	      0.04723500	     -0.19473400	      0.30019800	      0.05841900	     -0.32747500	   -208.47055925	    790.27293822	    -43.27922699	      0.85570300	      0.00000000	     -0.19182527	      3.84096862	     19.44587196	     -2.49193834	      0.31011221	      0.00000000	     -0.30560513	      0.00000000	     -1.54642358	      0.00000000	      0.00000000	     -0.13529881	      0.00000000	      0.65037417	      0.75037789	     -0.24377151	      0.63279754	      0.75737727	     -0.16438068	      0.62912953	      0.74977094	     -0.31978053	      0.80962616	      0.41779509	     -0.19130848	      0.55734748	      0.39119080	     -0.35458043	      0.84737945	      0.06044187	     -0.19645336	      0.27877223	      0.15633714	     -0.32697272	      0.75679094	      0.82878321	     -0.24873179	      0.75966936	      0.83475220	     -0.12678231	      0.75391251	      0.82281423	     -0.37068129	      0.51174790	      0.89512569	     -0.21389374	      0.50856525	      0.89271808	     -0.26863715	      0.81775534	      0.41639629	     -0.12028588	      0.55015862	      0.39948666	     -0.42523277	      0.80249846	      0.40878677	     -0.26660159	      0.57042509	      0.37094608	     -0.26194069	      0.83910805	      0.05902705	     -0.15887903	      0.26460552	      0.16907363	     -0.36157525	      0.85979527	      0.06759740	     -0.23154028	      0.29103324	      0.16797696	     -0.28685403	      0.52929521	      1.31888938	     -0.25797608	      0.66203898	      1.26051128	     -0.21863613	      0.66278553	      1.26135242	     -0.30326042	      0.64579004	      1.25433338	     -0.27360851	      0.70288569	      1.18454802	     -0.27231848	      0.88792509	      0.61012858	     -0.11702625	      0.77182412	      0.54002357	     -0.36311308	      0.84439909	      0.61476922	     -0.13234390	      0.72638178	      0.56090349	     -0.36414251	      0.85680985	      0.53963035	     -0.14528978	      0.69838369	      0.49347416	     -0.36308298	      0.91666973	      0.21573003	     -0.16825144	      0.33510959	      0.24099497	     -0.43619841	      0.87350309	      0.21246494	     -0.18296863	      0.34759766	      0.24638323	     -0.39073604	      0.95321488	      0.04723511	     -0.19473417	      0.30019763	      0.05841881	     -0.32747537
